<svg xmlns="http://www.w3.org/2000/svg" width="134" height="16" viewBox="0 0 134 16" fill="none">
                                                <g clip-path="url(#clip0_157_2646)">
                                                    <path fill-rule="evenodd" clip-rule="evenodd" d="M33.0619 2.08429C35.7668 2.08429 37.453 3.21346 37.453 5.03369C37.453 6.29771 36.645 7.29211 35.3277 7.62919C36.9261 7.91571 37.8921 9.06179 37.8921 10.6123C37.8921 12.6348 36.1005 13.882 33.2551 13.882H27.4062V2.08429H33.0619ZM32.9214 6.8371C33.9753 6.8371 34.6076 6.34827 34.6076 5.52244C34.6076 4.71344 33.9753 4.24152 32.9214 4.25842H30.1814V6.8371H32.9214ZM32.9214 11.7078C34.2211 11.7078 35.0291 11.1854 35.0291 10.2752C35.0291 9.41569 34.2211 8.89321 32.9214 8.91011H30.1814V11.7078H32.9214ZM53.536 13.882H50.392L48.4424 10.5112H45.6145V13.882H42.8394V2.08429H48.179C51.3932 2.08429 53.2199 3.56736 53.2199 6.17977C53.2199 8 52.4119 9.31458 50.9189 9.98873L53.536 13.882ZM45.6145 4.29215V8.28652H48.179C49.707 8.28652 50.5852 7.61237 50.5852 6.26406C50.5852 4.9494 49.707 4.29215 48.179 4.29215H45.6145ZM67.5638 13.882L66.5978 11.5899H60.9069L59.9409 13.882H57.078L62.4175 2.08429H65.2805L70.5322 13.882H67.5638ZM61.8204 9.44942H65.7021L63.7701 4.86519L61.8204 9.44942ZM72.4585 2.08429L77.2886 13.882H80.1515L85.0347 2.08429H82.1715L78.7991 10.9831L75.4444 2.08429H72.4585ZM97.4637 13.882L96.498 11.5899H90.8071L89.8414 13.882H86.9785L92.3179 2.08429H95.1808L100.432 13.882H97.4637ZM91.7204 9.44942H95.6022L93.67 4.86519L91.7204 9.44942ZM109.859 2.08429C113.671 2.08429 116.323 4.49438 116.323 7.98309C116.323 11.4551 113.635 13.882 109.753 13.882H104.642V2.08429H109.859ZM109.928 11.6405C111.984 11.6405 113.494 10.1573 113.494 8C113.494 5.82587 111.913 4.32581 109.806 4.32581H107.417V11.6405H109.928ZM126.803 2C130.562 2 133.406 4.56177 133.406 7.98317C133.406 11.3876 130.562 14 126.803 14C123.044 14 120.199 11.4045 120.199 7.98317C120.199 4.54494 123.044 2 126.803 2ZM126.838 4.32581C124.765 4.32581 123.044 5.91008 123.044 7.98317C123.044 10.0562 124.783 11.6741 126.838 11.6741C128.893 11.6741 130.562 10.0562 130.562 7.98317C130.562 5.91008 128.893 4.32581 126.838 4.32581Z" fill="#607B96"></path>
                                                    <path d="M16.4062 0V2.99995C16.4062 3.33333 16.4062 3.55552 16.3063 3.8889C16.0062 5.11105 14.9063 6 13.8062 6H3.10625C1.90625 6 0.906253 5.11105 0.606259 3.8889C0.40625 3.55552 0.40625 3.22224 0.40625 2.99995V0H3.10625V1.77781C3.10625 2.44448 3.60625 2.99995 4.20625 2.99995H12.7063C13.3062 2.99995 13.8062 2.44448 13.8062 1.77781V0H16.4062Z" fill="#607B96"></path>
                                                    <path d="M12.0062 8L9.10625 13.3001H8.40625H7.70625L4.80625 8H0.40625L1.90625 10.7001H3.20625L6.10625 16H8.40625H10.7062L13.6062 10.7001H14.9063L16.4062 8H12.0062Z" fill="#607B96"></path>
                                                </g>
                                                <defs>
                                                    <clipPath id="clip0_157_2646">
                                                        <rect width="133" height="16" fill="white" transform="translate(0.40625)"></rect>
                                                    </clipPath>
                                                </defs>
                                            </svg>