<svg xmlns="http://www.w3.org/2000/svg" width="116" height="18" viewBox="0 0 116 18" fill="none">
                                                <g clip-path="url(#clip0_157_2644)">
                                                    <path d="M7.91977 8.2775H13.1908C13.2864 8.81725 13.4015 9.77945 13.4015 10.9542C13.4015 14.1884 10.9094 17.4618 7.19119 17.4618C3.56944 17.4618 0.387715 14.2845 0.406331 9.87635C0.425794 5.25575 3.91385 2.2714 8.51381 2.2714C9.01222 2.2714 9.58679 2.3292 10.009 2.36745L11.561 7.33485L10.9094 7.5465L9.26101 6.025C7.82415 4.716 6.84594 4.29355 5.84996 4.29355C4.50788 4.29355 3.43489 5.2753 3.43489 7.23965C3.43489 10.8972 6.0412 14.6899 8.9166 14.6899C10.2773 14.6899 10.9475 14.1893 11.4273 13.6699L7.90031 9.02975V8.2792H7.91977V8.2775ZM27.1057 11.2041C27.1057 14.7273 24.4224 17.5 20.7228 17.5C17.0241 17.5 14.3408 14.7273 14.3408 11.2041C14.3408 7.6808 17.0232 4.90895 20.7228 4.90895C24.4224 4.9285 27.1057 7.70035 27.1057 11.2041ZM22.8121 10.5309C21.8728 7.6808 20.6458 5.98675 19.1904 6.46785C17.7332 6.9498 17.7332 9.04845 18.6336 11.8781C19.5728 14.7273 20.7998 16.4222 22.2562 15.9411C23.7319 15.4787 23.7319 13.38 22.8121 10.5309ZM39.3918 12.0133L39.6795 12.9755C39.2953 15.1124 37.6858 17.4618 34.4846 17.4618C30.8629 17.4618 28.0256 14.4001 28.0256 9.99195C28.0256 5.25575 31.495 2.25185 35.7878 2.25185C36.4208 2.25185 36.9572 2.30965 37.283 2.3479L38.8358 7.3153L38.1842 7.5278L36.5358 6.0063C35.1176 4.73555 34.2545 4.25445 33.278 4.25445C31.9359 4.25445 31.0541 5.27445 31.0541 7.21925C31.0541 10.8768 33.0664 14.1892 36.018 14.1892C37.839 14.1688 38.8164 13.1684 39.3918 12.0133ZM53.3829 15.2858L53.6325 16.0559C53.4405 16.3831 52.5976 17.4227 51.1219 17.4227C49.1282 17.4227 48.3235 16.2488 47.748 14.6508C47.1921 16.1528 45.927 17.4422 43.627 17.4422C41.5572 17.4422 40.4453 16.0754 40.4453 14.5735C40.4453 12.4943 42.1512 11.0315 45.7933 9.12495C45.333 8.2588 44.2981 7.8542 43.2056 7.8542C41.8644 7.8355 40.3691 8.41265 39.6025 9.4522L39.3342 8.6243C39.9097 7.0654 41.8255 4.9863 44.8921 4.9863C47.6524 4.9863 49.5115 6.68035 50.3738 9.3366L52.0222 14.4392C52.2718 15.2093 52.6552 15.4209 52.9615 15.4209C53.1147 15.4592 53.2873 15.3827 53.3829 15.2858ZM46.5794 11.493L46.0802 9.97155C44.7195 11.0119 44.0493 12.3405 44.0493 13.3035C44.0493 14.5548 44.6814 15.1319 45.5437 15.1319C47.0195 15.1319 47.3266 13.7464 46.5786 11.4939L46.5794 11.493ZM63.3876 8.7025L62.7546 8.915C61.4515 8.31745 60.9725 8.25965 59.8987 8.25965C59.2471 8.25965 58.6336 8.54865 58.6336 8.54865V15.0554C58.6336 15.7295 58.9602 16.2301 59.8606 16.5004V17.2314H53.8441V16.5004C54.6302 16.2301 54.7072 15.7295 54.7072 15.0554V8.1245C54.7072 6.8733 54.3425 6.43045 53.0774 5.9111V5.17925H58.5972L58.5016 7.79725H58.5591L59.0186 7.20055C59.9198 5.9876 61.0893 5.12145 62.2003 5.12145H62.2968L63.3876 8.7025ZM75.5966 16.5191V17.2501H70.6514L70.6708 15.6912H70.5558C70.2027 16.2096 69.7274 16.6321 69.1722 16.9211C68.617 17.21 67.9992 17.3563 67.374 17.347C64.6332 17.347 62.9467 15.0367 62.9467 12.0524C62.9467 8.12535 65.5919 5.2753 69.9042 5.2753C70.2486 5.2753 70.5752 5.29485 70.5752 5.29485V4.31225C70.5752 3.25315 70.0379 2.88765 69.1756 2.8103V2.1558L74.2748 0.5H74.4864V15.0741C74.505 15.7481 74.8113 16.2488 75.5974 16.5182L75.5966 16.5191ZM70.5752 13.2849V6.9685C70.2969 6.84867 69.9963 6.78984 69.6935 6.79595C68.2744 6.79595 66.5304 7.87375 66.5304 10.9159C66.5304 13.7269 67.6042 15.267 69.08 15.267C69.6165 15.2857 70.5752 15.0163 70.5752 13.284V13.2849ZM82.6116 16.5191V17.2501H76.4783V16.5191C77.2636 16.2497 77.5903 15.749 77.5903 15.075V4.31225C77.5903 3.25315 77.0529 2.88765 76.1906 2.8103V2.1558L81.2899 0.5H81.5014V15.0741C81.5014 15.7481 81.8077 16.2488 82.6125 16.5182L82.6116 16.5191ZM95.1278 11.533L95.3961 12.3601C94.9933 15.171 92.7128 17.4626 89.7417 17.4626C85.9271 17.4626 83.4739 14.5939 83.4739 10.9746C83.4739 7.68165 85.7739 5.02455 89.0132 5.02455C91.3707 5.02455 93.1147 6.46955 93.8238 8.4135L87.5374 12.6686C88.4191 13.6121 89.6647 14.2666 91.1024 14.2666C93.0766 14.2666 94.5719 12.8998 95.1278 11.533ZM85.9271 8.79855C85.9271 9.85765 86.2918 10.9746 86.9053 11.8985L87.9588 10.8785C88.6874 10.2045 89.2814 9.45305 89.2814 8.4135C89.2814 7.6247 88.7449 6.6812 87.6905 6.6812C86.7326 6.6999 85.9271 7.4513 85.9271 8.79855ZM102.066 9.6069C104.385 10.7816 105.324 11.9368 105.324 13.5543C105.324 15.4983 103.772 17.4626 100.437 17.4626C98.654 17.4626 97.6385 17.1736 96.7754 16.8081L95.6449 13.2849L96.2778 13.0919L96.8329 13.6308C98.5389 15.2484 99.996 16.3075 101.127 16.3075C101.97 16.3075 102.43 15.7685 102.43 15.2288C102.43 14.6899 102.334 14.0737 100.896 13.3418L98.769 12.264C96.8905 11.3018 96.0087 10.1271 96.0087 8.779C96.0087 6.46955 98.0218 5.12145 100.61 5.12145C102.354 5.12145 103.35 5.37135 103.35 5.37135L104.328 8.43305L103.695 8.62515L103.311 8.2792C101.319 6.5265 100.628 6.161 99.7853 6.161C99.1904 6.161 98.6734 6.54605 98.6734 7.08495C98.6734 7.47 98.7496 7.95195 99.9385 8.54865L102.066 9.6069ZM112.148 9.62645C114.448 10.8394 115.406 11.9368 115.406 13.5535C115.406 15.4983 113.853 17.4626 110.519 17.4626C108.736 17.4626 107.72 17.1736 106.858 16.8081L105.727 13.2849L106.359 13.0919L106.915 13.6308C108.621 15.2484 110.078 16.3075 111.208 16.3075C112.052 16.3075 112.511 15.7685 112.511 15.2288C112.511 14.6899 112.416 14.0932 110.978 13.3418L108.851 12.2257C106.972 11.2627 106.091 10.1076 106.091 8.7603C106.091 6.45 108.104 5.1019 110.691 5.1019C112.435 5.1019 113.432 5.35265 113.432 5.35265L114.409 8.4135L113.776 8.60645L113.393 8.25965C111.4 6.5078 110.71 6.14145 109.867 6.14145C109.272 6.14145 108.755 6.5265 108.755 7.06625C108.755 7.4513 108.832 7.91285 110.02 8.5291L112.148 9.62645Z" fill="#607B96"></path>
                                                </g>
                                                <defs>
                                                    <clipPath id="clip0_157_2644">
                                                        <rect width="115" height="17" fill="white" transform="translate(0.40625 0.5)"></rect>
                                                    </clipPath>
                                                </defs>
                                            </svg>