
<svg xmlns="http://www.w3.org/2000/svg" width="82" height="27" viewBox="0 0 82 27" fill="none">
    <path d="M20.1603 9.55189H10.5918V12.3912H17.3779C17.0428 16.373 13.73 18.0708 10.6032 18.0708C6.60306 18.0708 3.1121 14.9233 3.1121 10.5115C3.1121 6.21388 6.43984 2.90391 10.6122 2.90391C13.8313 2.90391 15.7279 4.95618 15.7279 4.95618L17.7161 2.89756C17.7161 2.89756 15.1644 0.0566406 10.5106 0.0566406C4.58445 0.0566406 0 5.05836 0 10.4608C0 15.7549 4.31229 20.9166 10.6617 20.9166C16.2457 20.9166 20.3334 17.0911 20.3334 11.4345C20.3334 10.2409 20.16 9.55123 20.16 9.55123L20.1603 9.55189Z" fill="#607B96"></path>
    <path d="M27.9974 7.49609C24.0711 7.49609 21.2573 10.5658 21.2573 14.1457C21.2573 17.7785 23.9867 20.905 28.0434 20.905C31.7158 20.905 34.7248 18.098 34.7248 14.2236C34.7248 9.78311 31.2248 7.49609 27.9974 7.49609ZM28.0364 10.1297C29.9671 10.1297 31.7967 11.6906 31.7967 14.206C31.7967 16.6681 29.9749 18.2734 28.0275 18.2734C25.8878 18.2734 24.1998 16.5598 24.1998 14.1865C24.1998 11.864 25.867 10.1297 28.0364 10.1297Z" fill="#607B96"></path>
    <path d="M42.6563 7.49609C38.7303 7.49609 35.9165 10.5658 35.9165 14.1457C35.9165 17.7785 38.6456 20.905 42.7026 20.905C46.3751 20.905 49.3837 18.098 49.3837 14.2236C49.3837 9.78311 45.8841 7.49609 42.6563 7.49609ZM42.6956 10.1297C44.6261 10.1297 46.4559 11.6906 46.4559 14.206C46.4559 16.6681 44.6341 18.2734 42.6866 18.2734C40.547 18.2734 38.859 16.5598 38.859 14.1865C38.859 11.864 40.5259 10.1297 42.6956 10.1297Z" fill="#607B96"></path>
    <path d="M57.0335 7.50293C53.4298 7.50293 50.5972 10.6594 50.5972 14.2023C50.5972 18.2377 53.8811 20.9138 56.9715 20.9138C58.8821 20.9138 59.8983 20.1554 60.6484 19.2845V20.6068C60.6484 22.9196 59.2441 24.3048 57.1242 24.3048C55.0762 24.3048 54.0492 22.7823 53.692 21.9181L51.1153 22.9953C52.0296 24.9281 53.8696 26.9439 57.1453 26.9439C60.7286 26.9439 63.4593 24.6869 63.4593 19.9535V7.90608H60.6484V9.04174C59.784 8.11048 58.602 7.50319 57.0335 7.50319V7.50293ZM57.2945 10.1311C59.0613 10.1311 60.8755 11.6399 60.8755 14.2164C60.8755 16.8353 59.0652 18.2786 57.2552 18.2786C55.334 18.2786 53.5463 16.7183 53.5463 14.2413C53.5463 11.6674 55.403 10.1311 57.2945 10.1311Z" fill="#607B96"></path>
    <path d="M75.9577 7.48633C72.5584 7.48633 69.7041 10.1912 69.7041 14.1818C69.7041 18.4051 72.8855 20.9097 76.2845 20.9097C79.1209 20.9097 80.8619 19.3578 81.9008 17.9671L79.5832 16.4251C78.982 17.3586 77.9763 18.2706 76.2985 18.2706C74.4138 18.2706 73.5471 17.2384 73.0101 16.2389L81.9998 12.5086L81.5331 11.4154C80.6649 9.27464 78.6389 7.48699 75.958 7.48699L75.9577 7.48633ZM76.0749 10.065C77.2997 10.065 78.1814 10.7161 78.5558 11.4972L72.5523 14.0065C72.2936 12.0636 74.1339 10.065 76.0749 10.065Z" fill="#607B96"></path>
    <path d="M65.4185 20.5117H68.3715V0.75H65.4185V20.5117Z" fill="#607B96"></path>
</svg>
