<svg xmlns="http://www.w3.org/2000/svg" width="116" height="26" viewBox="0 0 116 26" fill="none">
                                                <g clip-path="url(#clip0_157_2642)">
                                                    <path d="M40.1343 9.01273C40.1343 8.47161 39.7149 8.02798 39.129 8.02798C38.5415 8.02798 38.1229 8.47161 38.1229 9.01273V17.002C38.1229 17.5432 38.5423 17.9868 39.129 17.9868C39.7296 17.9868 40.1343 17.5432 40.1343 17.002V9.01273ZM50.0367 8.02798C49.4509 8.02798 49.0453 8.47161 49.0453 9.01273V12.4252L49.1016 15.4762L47.8859 12.6186L46.2948 9.37348C45.8052 8.36111 45.2471 8.02798 44.4507 8.02798C43.2773 8.02798 42.7608 8.76329 42.7608 9.81711V17.002C42.7608 17.5432 43.1656 17.9868 43.7522 17.9868C44.3389 17.9868 44.7436 17.5432 44.7436 17.002L44.7297 13.6318L44.6881 10.1779L45.9871 13.3401L47.5929 16.6413C48.0964 17.6959 48.6268 18.0006 49.437 18.0006C50.4847 18.0006 51.0289 17.3628 51.0289 16.1839V9.01273C51.0289 8.47161 50.6234 8.02798 50.0367 8.02798ZM58.4452 10.0674L60.7217 10.1218C61.2529 10.1356 61.6723 9.73342 61.6723 9.15086C61.6723 8.56829 61.2529 8.16611 60.7225 8.16611L54.1296 8.1523C53.6131 8.1523 53.1798 8.55448 53.1798 9.13704C53.1798 9.71961 53.6123 10.1218 54.1296 10.108L56.42 10.0674V17.002C56.42 17.5432 56.8394 17.9868 57.426 17.9868C58.0266 17.9868 58.446 17.5432 58.446 17.002V10.0665L58.4452 10.0674ZM65.1923 17.8625H70.0946C70.6119 17.8625 71.0305 17.4741 71.0305 16.933C71.0305 16.378 70.6119 15.9905 70.0946 15.9905L65.8353 16.0035V13.6879H69.5226C70.0252 13.6879 70.43 13.3125 70.43 12.7998C70.43 12.2717 70.0252 11.8979 69.5226 11.8979L65.8345 11.9255V10.0113H70.0946C70.6119 10.0113 71.0305 9.62292 71.0305 9.0688C71.0305 8.51305 70.6119 8.13929 70.0946 8.13929L65.207 8.15311C64.3127 8.15311 63.8093 8.65198 63.8093 9.54004V16.4755C63.8093 17.3628 64.3127 17.8625 65.1923 17.8625ZM79.0155 13.9089C80.3422 13.5619 81.1247 12.5357 81.1247 11.1764C81.1247 9.66436 80.1325 8.1523 77.7581 8.1523H74.6852C73.7917 8.1523 73.2891 8.65198 73.2891 9.53923V17.002C73.2891 17.5432 73.7076 17.9868 74.3221 17.9868C74.9226 17.9868 75.3559 17.5432 75.3559 17.002L75.342 14.3939H77.0319L78.7503 17.4733C79.0293 17.9445 79.6152 18.1395 80.1611 17.8617C80.7053 17.5708 80.8587 16.9882 80.5658 16.517L79.0155 13.9089ZM75.342 9.99748H77.7719C78.596 9.99748 79.1134 10.5102 79.1134 11.2731C79.1134 12.0222 78.6238 12.5772 77.7997 12.5772H75.342V9.99748ZM87.2982 18.042C89.3373 18.042 90.6502 17.1264 91.0973 15.6427C91.3348 14.7961 90.8321 14.1859 90.0774 14.1859C89.6172 14.1859 89.3096 14.4215 89.1276 14.935C88.8486 15.7118 88.164 16.1977 87.1865 16.1977C85.6361 16.1977 84.9654 15.1577 84.9654 12.9932C84.9654 10.8709 85.65 9.85855 87.1865 9.85855C88.1501 9.85855 88.709 10.2607 89.0583 11.1902C89.2541 11.7175 89.5748 11.9532 90.0496 11.9532C90.7758 11.9532 91.307 11.3706 91.0835 10.5662C90.6363 8.92904 89.3373 8.01336 87.2428 8.01336C84.3649 8.01336 82.8986 9.76104 82.8986 12.9932C82.8986 16.2529 84.3649 18.042 87.2982 18.042ZM97.2309 18.0144C100.192 18.0144 101.659 16.2115 101.659 12.9932C101.659 9.74804 100.15 7.95811 97.2309 7.95811C94.2983 7.95811 92.8312 9.77567 92.8174 12.9932C92.8174 16.2253 94.3122 18.0144 97.2309 18.0144ZM97.2309 16.1562C95.5835 16.1562 94.8711 15.1162 94.8711 12.9932C94.8711 10.8433 95.5973 9.80329 97.217 9.80329C98.8514 9.80329 99.62 10.8433 99.6053 12.9932C99.6053 15.13 98.8791 16.1562 97.2309 16.1562ZM114.66 9.76104C114.66 8.66579 113.975 8.01417 112.914 8.01417C112.048 8.01417 111.391 8.48542 111.07 9.56686L109.995 13.0484L109.283 15.559L108.598 13.0484L107.452 9.56686C107.131 8.55448 106.573 8.01336 105.595 8.01336C104.519 8.01336 103.849 8.65198 103.849 9.76104V17.002C103.849 17.5432 104.24 17.9868 104.813 17.9868C105.386 17.9868 105.776 17.5432 105.776 17.002L105.763 13.5067L105.665 9.76104L106.768 13.5895L107.941 16.9736C108.192 17.7227 108.667 17.973 109.283 17.973C109.855 17.973 110.316 17.765 110.553 17.002L111.671 13.5895L112.858 9.73342L112.746 13.5067V17.002C112.746 17.5432 113.151 17.9868 113.71 17.9868C114.283 17.9868 114.674 17.5432 114.674 17.002L114.66 9.76104ZM23.5573 14.3045C23.5573 14.5353 23.4659 14.7571 23.3027 14.9204C23.2223 15.0011 23.1266 15.0652 23.0213 15.1089C22.9159 15.1526 22.8029 15.1751 22.6887 15.1751C22.5745 15.1751 22.4615 15.1526 22.3561 15.1089C22.2507 15.0652 22.1551 15.0011 22.0747 14.9204C21.9116 14.7566 21.8201 14.5352 21.8201 14.3045V6.51836C21.8201 6.2868 21.9115 6.06498 22.0747 5.90167C22.1551 5.82097 22.2507 5.75692 22.3561 5.71321C22.4615 5.6695 22.5745 5.647 22.6887 5.647C22.8029 5.647 22.9159 5.6695 23.0213 5.71321C23.1266 5.75692 23.2223 5.82097 23.3027 5.90167C23.4659 6.06498 23.5573 6.2868 23.5573 6.51836V14.3045ZM23.2554 19.6995C23.1411 19.8149 19.9116 22.5157 13.9902 22.5157C8.06877 22.5157 4.86043 19.8287 4.72417 19.7134C4.59411 19.6037 4.4997 19.458 4.45292 19.2949C4.40614 19.1317 4.4091 18.9584 4.46143 18.7969C4.49576 18.6894 4.55092 18.5898 4.6238 18.5035C4.77333 18.3304 4.98569 18.2234 5.21434 18.2058C5.44299 18.1883 5.66929 18.2618 5.84366 18.4101C5.89425 18.4459 8.77947 20.794 13.9828 20.794C19.1862 20.794 22.0935 18.4312 22.122 18.4101C22.298 18.2624 22.5253 18.1894 22.7548 18.2069C22.9843 18.2243 23.1978 18.3309 23.3492 18.5035C23.4955 18.6755 23.5683 18.8976 23.5522 19.1224C23.536 19.3471 23.4321 19.5566 23.2627 19.706L23.2554 19.6995ZM4.41655 6.51836C4.4296 6.28598 4.53323 6.06905 4.7054 5.91386C4.87757 5.75867 5.1044 5.67823 5.33532 5.68961C5.5491 5.7018 5.75146 5.79361 5.90241 5.94636C6.05418 6.09911 6.14312 6.30305 6.15372 6.51836V14.2899C6.15372 14.5215 6.06152 14.7425 5.89914 14.9066C5.81874 14.9873 5.72309 15.0514 5.61771 15.0951C5.51233 15.1388 5.3993 15.1613 5.28514 15.1613C5.17098 15.1613 5.05795 15.1388 4.95256 15.0951C4.84718 15.0514 4.75153 14.9873 4.67113 14.9066C4.50786 14.7426 4.41635 14.5209 4.41655 14.2899V6.51836ZM8.77376 4.78936C8.786 4.5578 8.88963 4.34005 9.0618 4.18486C9.23396 4.03048 9.4608 3.94923 9.69171 3.96142C9.90631 3.97361 10.1079 4.06461 10.2596 4.21736C10.4106 4.37092 10.4995 4.57486 10.5101 4.78936V16.3139C10.5101 16.5454 10.4187 16.7672 10.2555 16.9305C10.1751 17.0112 10.0795 17.0753 9.9741 17.119C9.86872 17.1627 9.75569 17.1852 9.64153 17.1852C9.52737 17.1852 9.41434 17.1627 9.30896 17.119C9.20358 17.0753 9.10793 17.0112 9.02752 16.9305C8.86426 16.7665 8.77275 16.5448 8.77295 16.3139L8.77376 4.78936ZM13.1514 4.35711C13.1514 4.12636 13.2428 3.90455 13.406 3.74123C13.4864 3.66053 13.582 3.59648 13.6874 3.55277C13.7928 3.50906 13.9058 3.48656 14.02 3.48656C14.1341 3.48656 14.2472 3.50906 14.3525 3.55277C14.4579 3.59648 14.5536 3.66053 14.634 3.74123C14.7972 3.90373 14.8877 4.12636 14.8877 4.35711V16.8899C14.8877 17.1215 14.7963 17.3433 14.634 17.5066C14.5536 17.5874 14.4579 17.6516 14.3524 17.6954C14.2469 17.7391 14.1338 17.7617 14.0196 17.7617C13.9053 17.7617 13.7922 17.7391 13.6867 17.6954C13.5813 17.6516 13.4856 17.5874 13.4051 17.5066C13.2422 17.3424 13.151 17.1208 13.1514 16.8899V4.35711ZM17.4572 4.78936C17.4572 4.55861 17.5494 4.3368 17.7118 4.17348C17.7922 4.09278 17.8878 4.02873 17.9932 3.98502C18.0986 3.94131 18.2116 3.91881 18.3258 3.91881C18.4399 3.91881 18.553 3.94131 18.6583 3.98502C18.7637 4.02873 18.8594 4.09278 18.9398 4.17348C19.103 4.33598 19.1944 4.55861 19.1944 4.78936V16.3139C19.1944 16.5454 19.103 16.7672 18.9398 16.9305C18.8594 17.0112 18.7637 17.0753 18.6583 17.119C18.553 17.1627 18.4399 17.1852 18.3258 17.1852C18.2116 17.1852 18.0986 17.1627 17.9932 17.119C17.8878 17.0753 17.7922 17.0112 17.7118 16.9305C17.5485 16.7665 17.457 16.5448 17.4572 16.3139V4.78936ZM23.7947 0.0362326H4.21501C3.7877 0.0328764 3.36398 0.114189 2.96853 0.275439C2.57307 0.436689 2.21378 0.674654 1.91156 0.975483C1.29692 1.58502 0.950587 2.4127 0.94873 3.27648V22.7245C0.95281 23.5878 1.2988 24.4147 1.91156 25.0255C2.21429 25.3257 2.57365 25.5634 2.96896 25.7249C3.36427 25.8864 3.78774 25.9684 4.21501 25.9664H23.7939C24.2208 25.9696 24.644 25.8883 25.039 25.7272C25.434 25.5661 25.793 25.3284 26.0949 25.0279C26.7075 24.4191 27.0543 23.5944 27.0602 22.7326V3.27648C27.0558 2.41449 26.7104 1.58894 26.099 0.978733C25.7971 0.678836 25.4387 0.441212 25.0444 0.279479C24.6501 0.117746 24.2277 0.0350852 23.8013 0.0362326" fill="#607B96"></path>
                                                </g>
                                                <defs>
                                                    <clipPath id="clip0_157_2642">
                                                        <rect width="115.05" height="26" fill="white" transform="translate(0.355957)"></rect>
                                                    </clipPath>
                                                </defs>
                                            </svg>