<svg xmlns="http://www.w3.org/2000/svg" width="113" height="27" viewBox="0 0 113 27" fill="none">
                                                <path d="M29.4665 18.7916C29.4665 19.1072 29.3404 19.4107 29.1175 19.6338L23.7611 24.9696C23.6944 25.0367 23.6091 25.0824 23.5163 25.101C23.4234 25.1197 23.327 25.1103 23.2395 25.0742C23.1519 25.0381 23.0772 24.9769 23.0247 24.8983C22.9722 24.8197 22.9444 24.7273 22.9448 24.6329V12.6859L29.3939 6.29883H29.4686L29.4665 18.7916Z" fill="#607B96"></path>
                                                <path d="M25.1895 2.03292C25.0999 1.94368 24.9783 1.89355 24.8516 1.89355C24.7248 1.89355 24.6032 1.94368 24.5136 2.03292L16.5491 9.96576H16.4381V18.9187L16.5491 19.1539L29.4634 6.2893L25.1895 2.03292ZM3.63379 18.7921C3.63379 19.1097 3.75991 19.4112 3.98389 19.6343L9.33928 24.9701C9.40591 25.0375 9.49122 25.0836 9.58428 25.1024C9.67734 25.1213 9.77393 25.112 9.86169 25.0759C9.94944 25.0397 10.0244 24.9783 10.0769 24.8995C10.1294 24.8207 10.1571 24.728 10.1565 24.6334V12.6864L3.70946 6.30035H3.6348L3.63379 18.7921Z" fill="#607B96"></path>
                                                <path d="M8.58561 2.03292C8.49594 1.94368 8.37437 1.89355 8.24762 1.89355C8.12087 1.89355 7.9993 1.94368 7.90963 2.03292L3.63379 6.2903L16.5481 19.1549V9.96677L8.58662 2.03292H8.58561ZM37.4803 18.7921V6.87423H40.6685V8.47427C41.4051 7.26017 42.4745 6.65212 43.9243 6.65212C45.3742 6.65212 46.4668 7.27525 47.2467 8.56171C48.4958 7.25213 49.4543 6.65212 50.9475 6.65212C53.6454 6.65212 55.1628 8.1617 55.1628 10.9397V18.8021H51.7294V12.3387C51.7294 10.6723 51.3733 9.91752 50.0576 9.91752C48.7188 9.91752 47.9964 10.7386 47.9964 12.3387V18.8021H44.5297V12.3387C44.5297 10.6723 44.1736 9.91752 42.8569 9.91752C41.5191 9.91752 40.7967 10.7386 40.7967 12.3387V18.8021L37.4803 18.7921ZM59.4023 8.41899C60.0564 7.75919 60.8489 7.25155 61.7229 6.93241C62.5969 6.61326 63.531 6.4905 64.4582 6.57289C65.3854 6.65529 66.2829 6.94081 67.0864 7.40903C67.8899 7.87726 68.5796 8.5166 69.1062 9.28132C69.8114 10.3032 70.1982 11.5098 70.218 12.7497C70.218 14.5488 69.6147 16.0363 68.412 17.2373C67.8215 17.8408 67.1133 18.3176 66.331 18.6386C65.5486 18.9595 64.7087 19.1178 63.8628 19.1037C62.0336 19.1037 60.5636 18.4805 59.3357 17.1941C58.1905 16.0156 57.5576 14.4351 57.5741 12.795C57.571 11.9811 57.7311 11.1747 58.045 10.4233C58.359 9.6718 58.8204 8.99038 59.4023 8.41899ZM63.884 15.7709C65.4448 15.7709 66.716 14.4603 66.716 12.8382C66.716 11.1939 65.4448 9.88536 63.884 9.88536C62.3232 9.88536 61.0519 11.1949 61.0519 12.8382C61.0519 14.4603 62.3454 15.7709 63.884 15.7709ZM72.6273 18.7921V6.87423H75.972L75.9266 8.47427C76.6631 7.27424 77.7769 6.65212 79.3599 6.65212C81.8359 6.65212 83.4411 8.20693 83.4411 10.9397V18.8021H79.9189V12.3387C79.9189 10.6723 79.5627 9.91752 78.2017 9.91752C76.8195 9.91752 76.0839 10.7386 76.0839 12.3387V18.8021L72.6273 18.7921ZM98.5366 8.41899C99.1907 7.75884 99.9831 7.2509 100.857 6.93154C101.731 6.61219 102.666 6.48931 103.593 6.57172C104.521 6.65412 105.418 6.93977 106.222 7.40821C107.025 7.87664 107.715 8.51628 108.242 9.28132C108.947 10.3033 109.333 11.5099 109.352 12.7497C109.352 14.5488 108.75 16.0363 107.545 17.2373C106.955 17.8407 106.247 18.3175 105.465 18.6385C104.683 18.9594 103.843 19.1177 102.997 19.1037C101.169 19.1037 99.6969 18.4805 98.47 17.1941C97.3251 16.0155 96.6925 14.435 96.7095 12.795C96.7062 11.9811 96.8661 11.1748 97.1799 10.4234C97.4937 9.67192 97.9549 8.99047 98.5366 8.41899ZM103.019 15.7709C104.58 15.7709 105.851 14.4603 105.851 12.8382C105.851 11.1939 104.58 9.88536 103.019 9.88536C101.458 9.88536 100.187 11.1949 100.187 12.8382C100.187 14.4603 101.48 15.7709 103.019 15.7709ZM86.0996 18.7921V16.3036L91.0272 9.95169H86.0986V6.87423H94.9953V9.6954L90.6488 15.7156H95.0851V18.8021L86.0986 18.7921H86.0996Z" fill="#607B96"></path>
                                            </svg>