<svg xmlns="http://www.w3.org/2000/svg" width="106" height="17" viewBox="0 0 106 17" fill="none">
                                                <path fill-rule="evenodd" clip-rule="evenodd" d="M58.1252 7.94734C58.1252 7.94734 57.0947 7.30966 56.4563 7.06293C56.4563 7.06293 54.4825 6.14806 54.0908 5.71279C54.0908 5.71279 53.3221 4.98768 53.7718 4.14627C53.7718 4.14627 53.9605 3.59524 54.7735 3.59524C54.7735 3.59524 55.8319 3.65343 55.8319 4.52331V5.75047H59.6249L59.6177 3.94323C59.6177 3.94323 59.9094 0.982882 55.1499 0.853224C55.1499 0.853224 51.4071 0.607128 50.3335 2.62344C50.3335 2.62344 49.912 3.07263 49.912 4.63906V5.77096C49.912 5.77096 49.8691 7.07753 50.5364 7.91823C50.5364 7.91823 50.9136 8.46934 51.8424 9.07857C51.8424 9.07857 53.7282 10.0947 54.8594 10.6755C54.8594 10.6755 56.0026 11.3278 55.8517 12.365C55.8517 12.365 55.7591 13.4307 54.6558 13.3871C54.6558 13.3871 53.6469 13.3414 53.6469 12.2969V11.0704H49.6052V12.8526C49.6052 12.8526 49.4914 16.2601 54.6861 16.2601C54.6861 16.2601 59.6475 16.3613 59.8796 12.7626V11.3125C59.8796 11.3125 60.0544 9.10765 58.1252 7.94734Z" fill="#607B96"></path>
                                                <path fill-rule="evenodd" clip-rule="evenodd" d="M38.707 1.27637L37.437 9.23578H37.1401L35.9266 1.34766H29.5905L29.2734 15.7609H33.0248L33.0697 4.90097H33.3646L35.3532 15.7586H39.2998L41.264 4.90508H41.5252L41.6157 15.7609H45.3867L44.9812 1.27637H38.707Z" fill="#607B96"></path>
                                                <path fill-rule="evenodd" clip-rule="evenodd" d="M16.3758 1.33594L13.8799 15.7443H17.9182L19.3965 4.57253H19.7288L21.2067 15.7443H25.2446L22.7492 1.33594H16.3758Z" fill="#607B96"></path>
                                                <path fill-rule="evenodd" clip-rule="evenodd" d="M101.117 7.7482V9.87433H102.152V12.156C102.152 13.2706 101.199 13.2911 101.199 13.2911C100.04 13.2911 100.084 12.2314 100.084 12.2314V4.33936C100.084 3.52635 101.112 3.48274 101.112 3.48274C102.1 3.48274 102.107 4.45248 102.107 4.45248V5.65252H105.909C106.033 3.31072 105.566 2.74378 105.566 2.74378C104.623 0.625534 101.055 0.74136 101.055 0.74136C95.5718 0.74136 96.1797 4.94863 96.1797 4.94863V12.5793C96.2975 16.5253 101.7 16.1251 101.792 16.1198C104.196 15.8538 104.922 15.0904 104.922 15.0904C105.59 14.5943 105.762 13.9076 105.762 13.9076C105.952 13.5074 106 12.2314 106 12.2314V7.7482H101.117Z" fill="#607B96"></path>
                                                <path fill-rule="evenodd" clip-rule="evenodd" d="M88.513 10.093H88.3478L84.4879 1.27923H79.8726V15.7628H83.6293L83.4041 6.94997H83.5716L87.5693 15.7628H92.0468V1.27832H88.2422L88.513 10.093Z" fill="#607B96"></path>
                                                <path fill-rule="evenodd" clip-rule="evenodd" d="M70.6993 12.1537C70.6993 12.1537 70.7542 13.3424 69.6522 13.3424C69.6522 13.3424 68.4925 13.4046 68.4925 12.1834L68.4813 1.28809H64.3594V12.0968C64.3594 12.0968 63.9366 16.1876 69.7097 16.1876C69.7097 16.1876 74.7265 16.2472 74.7265 12.284V1.28878H70.6993V12.1537Z" fill="#607B96"></path>
                                                <path fill-rule="evenodd" clip-rule="evenodd" d="M8.51902 7.94724C8.51902 7.94724 7.48907 7.30956 6.85066 7.06284C6.85066 7.06284 4.87739 6.14931 4.48648 5.71269C4.48648 5.71269 3.71711 4.98701 4.16769 4.14685C4.16769 4.14685 4.35544 3.59577 5.1678 3.59577C5.1678 3.59577 6.22688 3.65337 6.22688 4.52321V5.75037H10.0213L10.0134 3.94246C10.0134 3.94246 10.3038 0.982766 5.54555 0.853129C5.54555 0.853129 5.18697 0.829951 4.66115 0.856468C4.66115 0.856468 1.77889 1.01124 0.748227 2.59226C0.742932 2.6035 0.734396 2.61275 0.728469 2.62334C0.728469 2.62334 0.307645 3.07185 0.307645 4.63896V5.77082C0.307645 5.77082 0.264057 7.07673 0.932182 7.91818C0.932182 7.91818 1.30859 8.46921 2.23804 9.07847C2.23804 9.07847 4.12264 10.0939 5.25447 10.6747C5.25447 10.6747 6.39811 11.327 6.24743 12.3649C6.24743 12.3649 6.15409 13.4307 5.05138 13.387C5.05138 13.387 4.04262 13.3413 4.04262 12.2968V11.0697H0.000197613V12.8525C0.000197613 12.8525 -0.113021 16.26 5.08051 16.26C5.08051 16.26 10.0418 16.3611 10.2746 12.7625V11.3131C10.2746 11.3131 10.4486 9.10756 8.51902 7.94724Z" fill="#607B96"></path>
                                            </svg>