<svg xmlns="http://www.w3.org/2000/svg" width="94" height="28" viewBox="0 0 94 28" fill="none">
                                                <path d="M12.4321 0C5.56619 0 0 5.56601 0 12.432C0 19.2986 5.56619 24.8644 12.4321 24.8644C19.2983 24.8644 24.8642 19.2986 24.8642 12.432C24.8642 5.56651 19.2986 0.000625788 12.432 0.000625788L12.4321 0ZM18.1334 17.9305C17.9101 18.2967 17.433 18.4115 17.0679 18.1883C14.1485 16.404 10.474 16.001 6.14649 16.9895C5.72948 17.0852 5.31381 16.8237 5.21881 16.4069C5.12334 15.9899 5.38358 15.5742 5.80163 15.4791C10.5374 14.3965 14.5995 14.8625 17.8764 16.8649C18.2416 17.089 18.3574 17.5655 18.1332 17.9307L18.1334 17.9305ZM19.655 14.5459C19.3739 15.0021 18.7774 15.1451 18.3218 14.8651C14.9808 12.8113 9.88623 12.2164 5.93361 13.4162C5.42099 13.571 4.87958 13.2822 4.724 12.7705C4.56961 12.2578 4.85865 11.7175 5.37037 11.5616C9.88535 10.1917 15.4981 10.8552 19.3357 13.2135C19.7915 13.4939 19.9355 14.0908 19.6549 14.546L19.655 14.5459H19.655ZM19.7857 11.0209C15.7783 8.64107 9.16815 8.4221 5.3426 9.58325C4.7283 9.76955 4.07866 9.4228 3.89249 8.80847C3.70633 8.19388 4.05282 7.54469 4.66758 7.35789C9.05904 6.02471 16.3593 6.28241 20.9724 9.02092C21.525 9.34877 21.7063 10.0625 21.3787 10.6142C21.0521 11.1667 20.3366 11.349 19.7858 11.0209H19.7857ZM33.8236 11.477C31.6771 10.9651 31.295 10.6059 31.295 9.85097C31.295 9.13776 31.9665 8.65771 32.9649 8.65771C33.9329 8.65771 34.8926 9.0223 35.8989 9.77262C35.9293 9.79527 35.9675 9.80435 36.005 9.79834C36.0426 9.79271 36.0758 9.77205 36.0978 9.74114L37.1459 8.26359C37.189 8.2027 37.1772 8.11885 37.1192 8.07248C35.9216 7.11152 34.573 6.6443 32.9967 6.6443C30.6791 6.6443 29.0601 8.03512 29.0601 10.0253C29.0601 12.1593 30.4567 12.9149 32.87 13.4982C34.924 13.9713 35.2707 14.3677 35.2707 15.0764C35.2707 15.8614 34.5696 16.3496 33.4415 16.3496C32.1886 16.3496 31.1666 15.9276 30.0233 14.9374C29.995 14.913 29.9561 14.9019 29.9202 14.904C29.8823 14.907 29.8477 14.9244 29.8237 14.9535L28.6485 16.3522C28.5992 16.4101 28.6054 16.4968 28.6625 16.547C29.9926 17.7345 31.6286 18.3616 33.394 18.3616C35.8915 18.3616 37.5053 16.9972 37.5053 14.8851C37.5098 13.1021 36.4424 12.1148 33.8281 11.4788L33.8236 11.477ZM43.1555 9.35997C42.073 9.35997 41.1851 9.78638 40.4529 10.66V9.67662C40.4529 9.5989 40.39 9.53582 40.3125 9.53582H38.3904C38.3128 9.53582 38.25 9.5989 38.25 9.67662V20.6032C38.25 20.6809 38.3128 20.7441 38.3904 20.7441H40.3125C40.39 20.7441 40.4529 20.6809 40.4529 20.6032V17.1542C41.1852 17.9761 42.0733 18.3776 43.1555 18.3776C45.167 18.3776 47.2032 16.8292 47.2032 13.8693C47.2062 10.9087 45.1693 9.35985 43.1578 9.35985L43.1555 9.35997ZM44.9682 13.8693C44.9682 15.3765 44.0397 16.4283 42.7103 16.4283C41.3961 16.4283 40.4047 15.3288 40.4047 13.8693C40.4047 12.4099 41.3961 11.3102 42.7103 11.3102C44.0182 11.3101 44.9683 12.3861 44.9683 13.8691L44.9682 13.8693ZM52.4221 9.35997C49.8317 9.35997 47.8023 11.3546 47.8023 13.9014C47.8023 16.4207 49.8178 18.3944 52.3904 18.3944C54.99 18.3944 57.0256 16.4064 57.0256 13.8693C57.0256 11.341 55.0036 9.36022 52.422 9.36022L52.4221 9.35997ZM52.4221 16.4434C51.0443 16.4434 50.0056 15.3363 50.0056 13.8686C50.0056 12.3945 51.0084 11.3249 52.3904 11.3249C53.7771 11.3249 54.8228 12.432 54.8228 13.9008C54.8228 15.3745 53.8133 16.4434 52.4223 16.4434H52.4221ZM62.5572 9.53582H60.4421V7.37328C60.4421 7.29594 60.3795 7.23261 60.3018 7.23261H58.3801C58.3023 7.23261 58.2392 7.29594 58.2392 7.37328V9.53582H57.3151C57.2377 9.53582 57.1751 9.5989 57.1751 9.67662V11.3285C57.1751 11.4059 57.2377 11.4694 57.3151 11.4694H58.2392V15.7436C58.2392 17.4708 59.0989 18.3466 60.7944 18.3466C61.4839 18.3466 62.0558 18.2042 62.5949 17.8986C62.6387 17.8741 62.6658 17.8268 62.6658 17.7766V16.2037C62.6658 16.1552 62.6406 16.1093 62.599 16.0838C62.5572 16.0575 62.5051 16.0562 62.4622 16.0774C62.0919 16.2637 61.734 16.3497 61.3339 16.3497C60.7172 16.3497 60.4421 16.0697 60.4421 15.4422V11.4702H62.5572C62.6348 11.4702 62.6973 11.4069 62.6973 11.3293V9.67756C62.7003 9.5999 62.6379 9.53657 62.5592 9.53657L62.5572 9.53582ZM69.9265 9.54427V9.27868C69.9265 8.49732 70.2261 8.14882 70.898 8.14882C71.2987 8.14882 71.6205 8.22842 71.981 8.3487C72.0254 8.36259 72.0717 8.35571 72.1077 8.32911C72.1449 8.30245 72.1658 8.2599 72.1658 8.21478V6.59524C72.1658 6.53329 72.126 6.47847 72.0664 6.46013C71.6855 6.34687 71.1983 6.23066 70.4688 6.23066C68.6936 6.23066 67.7552 7.23042 67.7552 9.12067V9.52743H66.8318C66.7543 9.52743 66.6908 9.59064 66.6908 9.66811V11.3285C66.6908 11.4059 66.7543 11.4694 66.8318 11.4694H67.7552V18.0622C67.7552 18.1398 67.8178 18.203 67.8954 18.203H69.8174C69.895 18.203 69.9583 18.1398 69.9583 18.0622V11.4698H71.7528L74.5018 18.0609C74.1897 18.7535 73.8828 18.8912 73.4639 18.8912C73.1253 18.8912 72.7687 18.7902 72.4041 18.5907C72.3698 18.5718 72.3291 18.5686 72.2922 18.5801C72.2555 18.593 72.2246 18.6203 72.209 18.656L71.5576 20.0851C71.5266 20.1528 71.5531 20.232 71.6182 20.2671C72.2982 20.6353 72.9121 20.7924 73.6709 20.7924C75.0901 20.7924 75.8745 20.1315 76.566 18.353L79.9005 9.73663C79.9173 9.6932 79.9122 9.64427 79.8857 9.60578C79.8592 9.56767 79.8166 9.54464 79.77 9.54464H77.7691C77.7091 9.54464 77.6555 9.58275 77.6359 9.63907L75.5862 15.4939L73.3411 9.63526C73.3207 9.58069 73.2681 9.54464 73.2099 9.54464H69.9261L69.9265 9.54427ZM65.654 9.53582H63.7319C63.6543 9.53582 63.591 9.5989 63.591 9.67662V18.0622C63.591 18.1398 63.6543 18.203 63.7319 18.203H65.654C65.7315 18.203 65.7948 18.1398 65.7948 18.0622V9.67731C65.7949 9.63982 65.7801 9.6039 65.7536 9.57737C65.7271 9.55103 65.6912 9.53619 65.6538 9.53632L65.654 9.53582ZM64.7038 5.71764C63.9424 5.71764 63.3245 6.33398 63.3245 7.0955C63.3245 7.85739 63.9426 8.47448 64.7038 8.47448C65.465 8.47448 66.0822 7.85739 66.0822 7.0955C66.0822 6.3341 65.4647 5.71764 64.7046 5.71764H64.7038ZM81.5417 12.2318C80.781 12.2318 80.1891 11.6209 80.1891 10.8791C80.1891 10.1373 80.7887 9.51942 81.5488 9.51942C82.3095 9.51942 82.9014 10.1301 82.9014 10.8714C82.9014 11.6132 82.3016 12.2318 81.5415 12.2318H81.5417ZM81.5491 9.65397C80.8562 9.65397 80.332 10.2047 80.332 10.8791C80.332 11.5532 80.8525 12.0966 81.5421 12.0966C82.2348 12.0966 82.7596 11.5462 82.7596 10.8714C82.7596 10.1973 82.2385 9.65397 81.5497 9.65397H81.5491H81.5491ZM81.849 11.0104L82.2315 11.5461H81.909L81.5645 11.0547H81.2684V11.5461H80.9983V10.1263H81.6315C81.9614 10.1263 82.1783 10.2952 82.1783 10.5792C82.1797 10.812 82.0447 10.9542 81.8502 11.0106H81.849V11.0104ZM81.6203 10.37H81.2682V10.819H81.6203C81.7961 10.819 81.9011 10.733 81.9011 10.5942C81.9011 10.4482 81.7957 10.37 81.6205 10.37H81.6203Z" fill="#607B96"></path>
                                            </svg>