
<svg xmlns="http://www.w3.org/2000/svg" width="70" height="29" viewBox="0 0 70 29" fill="none">
    <path d="M4.87461 11.1705C4.87461 10.4284 5.49116 10.1429 6.51233 10.1429C7.97664 10.1429 9.82629 10.5806 11.2906 11.3608V6.88882C9.69142 6.26083 8.11151 6.01344 6.51233 6.01344C2.60108 6.01344 0 8.03061 0 11.3989C0 16.6512 7.32155 15.8138 7.32155 18.0784C7.32155 18.9538 6.55086 19.2392 5.4719 19.2392C3.87272 19.2392 1.83039 18.5922 0.21194 17.7168V22.2459C2.00379 23.0071 3.81491 23.3306 5.4719 23.3306C9.47948 23.3306 12.2347 21.3706 12.2347 17.9642C12.2154 12.2933 4.87461 13.3019 4.87461 11.1705ZM17.8993 2.20747L13.1981 3.19702L13.1788 18.44C13.1788 21.2564 15.3175 23.3306 18.169 23.3306C19.7489 23.3306 20.905 23.0452 21.5408 22.7027V18.8396C20.9242 19.087 17.88 19.9624 17.88 17.1459V10.3903H21.5408V6.33695H17.88L17.8993 2.20747ZM27.5329 7.74516L27.2246 6.33695H23.0629V22.9881H27.8797V11.7034C29.0165 10.2381 30.9432 10.5045 31.5405 10.7138V6.33695C30.9239 6.10859 28.6697 5.68994 27.5329 7.74516ZM32.7158 6.33695H37.5518V22.9881H32.7158V6.33695ZM32.7158 4.89068L37.5518 3.86307V0L32.7158 1.00858V4.89068ZM47.6094 6.01344C45.7212 6.01344 44.5073 6.88882 43.833 7.49778L43.5825 6.31792H39.3437V28.5068L44.1605 27.4982L44.1798 22.1127C44.8734 22.6075 45.8946 23.3116 47.5901 23.3116C51.0389 23.3116 54.1795 20.5713 54.1795 14.5388C54.1602 9.02017 50.9811 6.01344 47.6094 6.01344ZM46.4533 19.125C45.3166 19.125 44.6422 18.7254 44.1798 18.2306L44.1605 11.1705C44.6615 10.6187 45.3551 10.2381 46.4533 10.2381C48.2066 10.2381 49.4205 12.1791 49.4205 14.672C49.4205 17.222 48.2259 19.125 46.4533 19.125ZM69.3621 14.7291C69.3621 9.85748 66.9729 6.01344 62.4066 6.01344C57.821 6.01344 55.0465 9.85748 55.0465 14.6911C55.0465 20.4191 58.3219 23.3116 63.0231 23.3116C65.3159 23.3116 67.05 22.7978 68.3602 22.0747V18.2687C67.05 18.9157 65.5472 19.3153 63.6397 19.3153C61.7708 19.3153 60.1138 18.6683 59.9019 16.4228H69.3235C69.3235 16.1754 69.3621 15.1859 69.3621 14.7291ZM59.8441 12.9213C59.8441 10.7709 61.1735 9.87651 62.3873 9.87651C63.5626 9.87651 64.815 10.7709 64.815 12.9213H59.8441Z" fill="#607B96"></path>
</svg>
